<?xml version="1.0" standalone="no"?>
<!DOCTYPE svg PUBLIC "-//W3C//DTD SVG 20010904//EN"
 "http://www.w3.org/TR/2001/REC-SVG-20010904/DTD/svg10.dtd">
<svg version="1.0" xmlns="http://www.w3.org/2000/svg"
 width="713.000000pt" height="330.000000pt" viewBox="0 0 713.000000 330.000000"
 preserveAspectRatio="xMidYMid meet">

<g transform="translate(0.000000,330.000000) scale(0.100000,-0.100000)"
fill="#000000" stroke="none">
<path d="M1035 2934 c-43 -46 -70 -142 -62 -215 7 -56 41 -122 81 -157 l26
-22 -21 -41 c-66 -131 -64 -426 7 -784 19 -98 27 -174 31 -310 5 -164 3 -194
-22 -340 -38 -225 -35 -253 60 -500 42 -109 46 -131 27 -187 -19 -60 -11 -79
41 -92 49 -13 105 10 135 54 25 36 26 61 6 189 -10 63 16 50 39 -20 17 -51 18
-57 2 -102 -20 -60 -13 -83 31 -97 30 -10 43 -9 81 5 39 15 48 16 57 4 27 -35
95 -48 140 -27 34 15 41 40 22 77 -9 17 -16 43 -16 58 0 31 36 142 51 157 11
13 12 15 -5 -74 -18 -92 -13 -122 28 -165 38 -40 91 -53 133 -33 30 14 32 29
18 123 -5 30 1 59 23 120 16 44 46 124 66 178 44 120 61 221 49 297 -8 45 -6
63 9 95 25 57 25 179 -2 222 -40 67 -116 85 -185 45 -34 -21 -37 -21 -70 -5
-19 9 -35 20 -35 24 0 4 16 83 36 176 92 438 103 780 28 925 -13 26 -13 28 15
49 16 12 42 44 57 73 38 69 38 155 0 241 -31 70 -58 94 -104 95 -28 0 -35 -5
-47 -33 -8 -19 -19 -71 -24 -117 -6 -46 -13 -85 -16 -88 -3 -3 -16 7 -29 21
-28 30 -64 42 -106 33 -22 -4 -40 1 -67 20 -44 30 -104 29 -150 -2 -20 -13
-42 -18 -74 -15 -37 2 -51 -2 -77 -24 -37 -31 -37 -33 -50 83 -11 94 -28 122
-75 122 -21 0 -39 -10 -62 -36z m95 -4 c6 -11 15 -52 20 -92 5 -40 14 -95 19
-123 5 -27 8 -52 5 -54 -8 -8 -27 58 -39 137 -7 46 -17 88 -23 94 -16 16 -43
5 -66 -25 -18 -24 -21 -43 -21 -117 l0 -89 39 -40 c45 -46 43 -66 -2 -30 -45
36 -62 80 -62 160 0 78 17 130 57 172 31 32 58 35 73 7z m730 -8 c15 -16 35
-53 44 -82 32 -107 12 -198 -55 -254 -45 -38 -49 -16 -4 26 43 39 59 97 49
174 -11 90 -59 141 -94 99 -6 -8 -16 -46 -21 -85 -10 -79 -27 -150 -35 -150
-4 0 -3 17 1 38 4 20 13 81 20 134 17 133 39 156 95 100z m-756 -86 c4 -18 1
-57 -5 -85 -6 -29 -9 -67 -7 -86 3 -23 0 -31 -8 -28 -33 12 -45 137 -20 198
19 44 32 44 40 1z m750 -6 c20 -51 21 -122 1 -160 -17 -34 -40 -41 -32 -10 3
11 0 51 -5 88 -11 68 -6 122 11 122 5 0 16 -18 25 -40z m-354 -35 c16 -8 34
-24 40 -35 10 -18 12 -18 38 -3 52 30 111 -3 119 -66 4 -30 17 -52 50 -87 53
-55 98 -146 114 -229 16 -85 5 -371 -20 -525 -22 -137 -47 -256 -91 -446 -25
-112 -27 -128 -14 -152 7 -15 17 -27 21 -27 5 0 7 -13 6 -29 -1 -21 1 -25 8
-15 8 12 10 12 19 -1 5 -8 7 -23 4 -32 -3 -12 0 -18 9 -18 17 0 27 -21 27 -53
0 -17 2 -19 9 -8 8 12 12 12 25 2 9 -8 16 -21 16 -30 0 -14 2 -14 10 -1 8 12
13 13 30 3 26 -17 30 -16 30 2 0 18 26 20 33 3 3 -7 6 -1 6 15 1 15 6 27 11
27 6 0 10 10 11 23 0 13 6 5 15 -23 31 -101 10 -258 -58 -414 -52 -121 -60
-149 -67 -216 l-6 -65 -65 4 c-36 2 -67 5 -70 8 -2 2 3 47 12 100 15 91 19 98
56 132 41 37 82 92 82 109 0 5 -30 -19 -66 -55 -37 -35 -68 -62 -70 -61 -1 2
6 30 17 62 11 32 18 66 16 75 -3 13 -5 13 -12 -4 -4 -11 -30 -74 -58 -140 -38
-90 -51 -137 -55 -187 l-5 -66 -64 0 c-46 0 -66 4 -70 15 -3 7 2 59 11 115 10
55 16 102 14 103 -2 2 -26 -1 -53 -6 -66 -13 -168 -3 -215 21 -21 11 -50 34
-64 52 -14 18 -26 27 -26 20 0 -27 31 -71 64 -91 30 -19 35 -29 45 -85 14 -83
14 -133 -1 -138 -7 -2 -37 -3 -66 -3 l-54 0 -2 55 c-1 39 -15 89 -48 170 -26
63 -52 136 -58 162 -15 59 -8 212 15 343 29 167 25 371 -14 599 -63 370 -74
536 -46 670 20 94 64 183 113 231 32 30 42 48 42 71 0 64 64 107 122 83 26
-11 32 -9 56 13 44 41 76 47 122 23z m530 -1433 c19 -20 31 -44 35 -75 8 -49
-1 -133 -13 -141 -4 -2 -20 20 -36 49 -15 30 -53 77 -83 106 l-56 53 23 18
c35 29 96 24 130 -10z m-185 -88 c51 -76 64 -87 97 -80 23 5 29 2 34 -19 12
-47 -13 -73 -60 -61 -17 4 -39 30 -73 87 -26 45 -56 85 -65 90 -18 10 -25 49
-11 62 9 10 39 -19 78 -79z m68 9 c38 -33 47 -53 24 -53 -18 0 -39 18 -71 61
-46 62 -29 60 47 -8z m-383 -741 c0 -16 -5 -54 -11 -84 -11 -52 -14 -56 -43
-61 -47 -7 -53 0 -59 61 -3 31 -8 67 -12 79 -7 20 -3 22 46 26 30 2 60 4 67 5
7 1 12 -9 12 -26z"/>
<path d="M1187 2493 c-34 -66 -57 -158 -57 -230 0 -122 46 -190 166 -245 41
-19 66 -23 159 -23 100 0 115 3 166 28 31 15 75 47 97 71 49 53 66 128 51 233
-11 81 -46 183 -63 183 -7 0 -23 -11 -36 -25 -25 -27 -55 -31 -93 -14 -21 9
-28 7 -55 -20 -43 -44 -97 -43 -141 1 -27 28 -34 31 -51 20 -34 -21 -70 -14
-100 19 l-29 30 -14 -28z m48 -49 c16 -11 39 -15 67 -12 33 3 51 -1 77 -19 44
-30 104 -30 151 -1 24 15 48 21 78 19 26 -2 53 4 67 13 23 15 25 15 39 -11 17
-35 36 -123 36 -171 0 -67 -20 -113 -68 -161 -59 -58 -124 -81 -233 -81 -98 0
-174 26 -228 80 -52 52 -65 94 -58 194 5 68 30 166 44 166 2 0 15 -7 28 -16z"/>
<path d="M1252 2403 c-7 -3 -19 -18 -27 -33 -32 -62 -8 -130 45 -130 54 0 88
77 59 133 -19 35 -42 44 -77 30z m18 -57 c0 -14 -5 -28 -10 -31 -13 -8 -24 20
-16 40 9 24 26 17 26 -9z m37 -58 c-3 -8 -6 -5 -6 6 -1 11 2 17 5 13 3 -3 4
-12 1 -19z"/>
<path d="M1580 2390 c-29 -29 -28 -99 3 -128 48 -45 107 -15 107 53 0 29 -22
71 -44 87 -19 13 -46 8 -66 -12z m78 -54 c3 -20 0 -27 -10 -24 -7 3 -14 17
-16 32 -3 20 0 27 10 24 7 -3 14 -17 16 -32z m-48 -40 c0 -3 -4 -8 -10 -11 -5
-3 -10 -1 -10 4 0 6 5 11 10 11 6 0 10 -2 10 -4z"/>
<path d="M1410 2269 c0 -6 8 -24 17 -39 14 -24 14 -31 4 -44 -18 -22 -41 -20
-68 6 -24 22 -31 11 -13 -22 9 -16 22 -19 97 -18 93 0 113 8 113 42 0 21 -1
21 -18 -2 -21 -27 -59 -27 -76 0 -8 13 -5 22 13 42 13 13 20 29 16 35 -8 14
-85 14 -85 0z"/>
</g>
</svg>
