<?xml version="1.0" standalone="no"?>
<!DOCTYPE svg PUBLIC "-//W3C//DTD SVG 20010904//EN"
 "http://www.w3.org/TR/2001/REC-SVG-20010904/DTD/svg10.dtd">
<svg version="1.0" xmlns="http://www.w3.org/2000/svg"
 width="300.000000pt" height="300.000000pt" viewBox="0 0 300.000000 300.000000"
 preserveAspectRatio="xMidYMid meet">

<g transform="translate(0.000000,300.000000) scale(0.100000,-0.100000)"
fill="#000000" stroke="none">
<path d="M1021 2665 c-33 -38 -61 -118 -61 -174 0 -44 39 -128 73 -160 25 -22
25 -25 12 -52 -61 -118 -59 -417 6 -739 34 -166 37 -386 9 -552 -30 -175 -25
-296 15 -383 15 -33 38 -94 52 -135 23 -68 24 -80 12 -127 -15 -65 -9 -80 38
-89 47 -9 99 17 127 65 18 32 19 37 4 113 -8 43 -11 81 -6 84 16 10 50 -86 44
-122 -3 -19 -9 -49 -12 -67 -5 -29 -2 -35 21 -45 33 -15 64 -15 94 2 22 12 28
11 54 -8 36 -27 108 -29 134 -4 15 15 15 22 5 51 -7 18 -12 46 -12 61 0 38 29
134 42 142 8 5 9 -1 4 -17 -17 -62 -18 -145 -3 -176 21 -39 78 -67 122 -59 48
9 61 29 47 70 -23 64 -20 77 79 336 29 77 33 96 34 205 1 66 7 133 14 148 6
16 11 58 11 95 0 69 -15 106 -56 137 -27 21 -93 18 -131 -5 -29 -18 -34 -18
-62 -4 -17 9 -31 19 -31 24 0 5 14 73 30 151 54 250 72 412 68 593 -3 145 -6
167 -28 221 l-26 60 35 30 c51 44 75 106 68 174 -12 120 -56 191 -116 191 -39
0 -56 -31 -66 -118 -4 -35 -10 -75 -14 -89 l-7 -25 -13 26 c-16 29 -68 50
-104 41 -16 -4 -36 1 -58 14 -42 26 -89 27 -132 4 -18 -10 -53 -18 -79 -18
-35 0 -53 -6 -71 -23 l-25 -23 -5 23 c-3 13 -9 50 -12 83 -9 76 -26 105 -64
105 -20 0 -38 -10 -60 -35z m85 4 c8 -13 45 -251 39 -257 -7 -7 -25 72 -32
135 -15 157 -110 99 -101 -63 3 -67 6 -76 36 -107 17 -18 32 -36 32 -40 0 -17
-41 16 -65 51 -45 66 -31 208 27 269 23 25 52 30 64 12z m669 -16 c29 -32 55
-109 55 -162 0 -20 -9 -54 -19 -77 -18 -40 -69 -90 -80 -78 -3 3 3 13 15 23
11 9 29 29 39 45 37 57 16 215 -31 233 -22 8 -43 -15 -49 -56 -19 -120 -28
-162 -38 -168 -6 -4 -8 2 -3 18 3 13 11 65 17 114 16 133 42 163 94 108z
m-691 -77 c4 -19 1 -55 -5 -80 -6 -25 -9 -59 -7 -75 6 -41 -18 -29 -33 16 -18
56 2 173 30 173 5 0 12 -15 15 -34z m677 17 c22 -25 19 -167 -3 -190 -17 -16
-18 -15 -19 37 -1 30 -4 66 -8 79 -8 29 -2 91 9 91 4 0 14 -7 21 -17z m-294
-72 c25 -26 30 -27 49 -14 44 28 114 -18 114 -76 0 -17 13 -39 38 -63 47 -45
89 -129 104 -206 15 -80 3 -360 -22 -507 -23 -138 -50 -270 -83 -404 -18 -72
-21 -100 -13 -117 6 -12 15 -22 21 -21 5 1 9 -11 8 -26 -2 -24 0 -27 13 -17
15 13 18 5 14 -33 -1 -10 4 -16 12 -15 8 2 14 -9 16 -31 3 -24 6 -30 12 -21 7
11 11 11 24 1 9 -8 16 -21 17 -30 0 -10 2 -11 6 -3 7 17 24 15 39 -5 12 -17
13 -17 14 -1 0 23 20 34 31 17 6 -10 9 -6 9 14 0 15 5 27 10 27 6 0 10 8 11
18 2 35 29 -85 29 -129 0 -60 -31 -178 -70 -270 -43 -99 -71 -197 -64 -225 8
-30 -3 -34 -69 -27 -66 7 -67 9 -43 122 12 52 22 71 59 110 39 40 67 80 67 95
0 2 -27 -23 -60 -56 -34 -33 -63 -58 -66 -56 -2 3 2 20 10 39 19 47 29 99 19
99 -4 0 -15 -22 -24 -48 -9 -26 -31 -81 -49 -122 -21 -50 -34 -98 -37 -142
l-6 -67 -53 1 c-80 2 -79 1 -61 114 9 54 16 99 14 100 -1 1 -25 -2 -52 -7 -59
-12 -148 -3 -190 18 -16 8 -42 29 -57 47 -16 17 -28 27 -28 23 0 -20 32 -67
58 -86 23 -16 32 -33 41 -77 6 -32 11 -72 11 -91 0 -28 -4 -33 -22 -33 -13 0
-40 -3 -60 -6 l-38 -7 0 39 c0 42 -26 130 -60 209 -56 126 -62 213 -29 407 28
165 27 342 -1 508 -46 270 -51 310 -56 455 -9 220 17 322 105 418 24 26 41 54
41 68 0 57 61 99 113 78 18 -8 31 -9 35 -3 16 23 59 44 89 44 22 0 41 -9 60
-29z m445 -1272 c39 -21 58 -106 42 -188 -8 -39 -20 -40 -29 -2 -7 31 -41 77
-97 131 -36 34 -37 37 -21 53 19 19 74 22 105 6z m-190 -46 c14 -16 37 -47 52
-70 25 -41 63 -62 85 -49 12 8 26 -38 17 -59 -3 -8 -18 -15 -34 -15 -32 0 -58
24 -88 83 -10 21 -31 50 -46 65 -26 25 -38 72 -20 72 5 0 20 -12 34 -27z m90
-33 c44 -41 49 -49 31 -50 -13 0 -36 18 -63 50 -54 64 -37 64 32 0z m-345
-718 c-8 -78 -14 -89 -45 -95 -41 -8 -49 1 -55 56 -3 29 -8 62 -12 75 -7 21
-5 22 55 22 l63 0 -6 -58z"/>
<path d="M1157 2264 c-49 -95 -62 -246 -28 -321 41 -89 150 -138 295 -131 103
4 162 27 217 84 60 62 69 194 22 324 -24 67 -32 74 -54 46 -24 -31 -65 -41
-92 -23 -20 13 -24 12 -48 -14 -36 -39 -94 -40 -134 -3 -24 22 -31 24 -53 15
-31 -15 -62 -6 -89 26 l-21 26 -15 -29z m108 -51 c30 3 48 0 53 -8 23 -39 100
-46 152 -13 23 14 48 21 73 19 21 -2 48 4 62 13 22 14 23 14 33 -12 35 -88 42
-187 17 -245 -62 -148 -334 -185 -461 -62 -68 65 -81 164 -37 287 16 45 17 46
40 31 16 -11 37 -14 68 -10z"/>
<path d="M1205 2165 c-32 -31 -34 -86 -5 -115 25 -25 41 -25 71 -1 32 26 34
105 5 127 -28 20 -43 18 -71 -11z m35 -28 c0 -7 -5 -19 -10 -27 -15 -22 -32 7
-19 32 10 19 29 16 29 -5z m27 -59 c-3 -8 -6 -5 -6 6 -1 11 2 17 5 13 3 -3 4
-12 1 -19z"/>
<path d="M1516 2171 c-27 -30 -18 -99 16 -124 25 -19 28 -19 52 -3 44 28 46
81 5 124 -24 27 -50 28 -73 3z m74 -47 c0 -31 -23 -28 -28 4 -2 15 2 22 12 22
11 0 16 -9 16 -26z"/>
<path d="M1360 2058 c0 -6 8 -20 17 -30 13 -15 15 -23 7 -36 -17 -26 -45 -27
-65 -1 -20 26 -26 10 -9 -22 12 -21 68 -27 87 -8 8 8 13 8 17 0 9 -15 59 -14
74 1 7 7 12 21 12 33 0 19 -1 19 -19 -4 -20 -26 -48 -25 -65 1 -8 13 -6 21 7
36 27 30 21 42 -23 42 -24 0 -40 -5 -40 -12z"/>
</g>
</svg>
